# xmcd
#
# Track frame offsets:
#	150
#	12750
#	28745
#	42212
#	57294
#	70670
#	86312
#	103900
#	117545
#	132102
#	148185
#	161360
#	173007
#	188397
#	202997
#	216412
#	232945
#	246755
#	262902
#	272907
#	289470
#	298695
#	311117
#
# Disc length: 4314 seconds
#
# Revision: 1
# Processed by: cddbd v1.4PL0 Copyright (c) Steve Scherf et al.
# Submitted via: audiograbber 1.81.03
#
DISCID=5010d817
DTITLE=Various Artist - It´s Country Time CD 1
DYEAR=1900
DGENRE=
TTITLE0=Truck Stop - Der wilde, wilde Westen
TTITLE1=Truck Stop - Ich möcht so gern Dave Dudley hör´n
TTITLE2=Truck Stop - Take it easy altes Haus
TTITLE3=Truck Stop - Easy Rider
TTITLE4=Truck Stop - Arizona, Arizona
TTITLE5=Truck Stop - Alles Bingo
TTITLE6=Truck Stop - Wenn es Nacht wird in Old Tucson
TTITLE7=Truck Stop - Männer mit Hut
TTITLE8=Truck Stop - Der Tramp
TTITLE9=Truck Stop - Old Texas Town, die Westernstadt
TTITLE10=Truck Stop - Die Frau mit dem Gurt
TTITLE11=Truck Stop - Lass die Mädels wissen
TTITLE12=Volker Lechtenbrink - Lucille
TTITLE13=Volker Lechtenbrink - Der Macher
TTITLE14=Volker Lechtenbrink - Hitch-Hike-Baby (Kleine Rasthaus-Lady)
TTITLE15=Volker Lechtenbrink - Der Spieler
TTITLE16=Volker Lechtenbrink - Hilf mir durch die Nacht
TTITLE17=Volker Lechtenbrink - Leben, so wie ich es mag
TTITLE18=Ralf Paulsen - Bonanza
TTITLE19=Ralf Paulsen - High Noon - 12 Uhr mittags
TTITLE20=Ralf Paulsen - Tränen in deinen Augen
TTITLE21=Ralf Paulsen - Die Western von gestern
TTITLE22=Ralf Paulsen - Kleine Annabell
EXTD=
EXTT0=
EXTT1=
EXTT2=
EXTT3=
EXTT4=
EXTT5=
EXTT6=
EXTT7=
EXTT8=
EXTT9=
EXTT10=
EXTT11=
EXTT12=
EXTT13=
EXTT14=
EXTT15=
EXTT16=
EXTT17=
EXTT18=
EXTT19=
EXTT20=
EXTT21=
EXTT22=
PLAYORDER=
